<svg version="1.1" id="Layer_1" xmlns="http://www.w3.org/2000/svg" xmlns:xlink="http://www.w3.org/1999/xlink" x="0px" y="0px"
	 width="100%" viewBox="0 0 500 500" enable-background="new 0 0 500 500" xml:space="preserve">
<path fill="#000000" opacity="1.000000" stroke="none" 
	d="
M217.000000,501.000000 
	C144.666687,501.000000 72.833366,501.000000 1.000039,501.000000 
	C1.000026,334.333405 1.000026,167.666779 1.000013,1.000128 
	C167.666565,1.000085 334.333130,1.000085 500.999756,1.000043 
	C500.999847,167.666534 500.999847,334.333069 500.999939,500.999817 
	C406.500000,501.000000 312.000000,501.000000 217.000000,501.000000 
M250.309021,133.108948 
	C246.912689,139.391754 243.516357,145.674576 240.195175,152.653488 
	C243.544968,158.761322 246.894760,164.869156 249.277023,171.003159 
	C246.948822,170.999969 244.550507,171.362198 242.304413,170.931152 
	C231.859222,168.926559 226.236206,173.346466 221.307495,182.755524 
	C209.229095,205.813507 195.755844,228.140823 182.342239,251.023987 
	C182.363708,251.531372 182.385178,252.038757 183.160172,252.731216 
	C183.417557,252.705688 183.674942,252.680145 184.724060,252.880692 
	C204.769470,252.897385 224.814911,252.932068 244.860214,252.891632 
	C246.248047,252.888840 247.634781,252.326782 249.623352,251.703781 
	C250.698044,249.843948 251.823013,248.011093 252.838013,246.119202 
	C255.858292,240.489594 261.367249,234.731079 261.137268,229.221924 
	C260.893494,223.382996 255.179871,217.772415 251.675583,211.388580 
	C250.945541,211.705170 249.856934,211.816330 249.539917,212.369598 
	C245.624161,219.203491 241.820984,226.101883 237.060913,233.114441 
	C230.036819,233.085556 223.012741,233.056671 216.064163,232.322998 
	C219.576523,226.159683 223.110931,220.008804 226.596756,213.830536 
	C234.448944,199.913315 242.277054,185.982513 250.529388,171.925049 
	C250.529388,171.925049 250.946030,171.800034 251.389923,172.352524 
	C266.128143,197.933670 280.825104,223.538879 295.697693,249.041656 
	C296.685699,250.735855 298.944427,252.631866 300.722839,252.748703 
	C306.494873,253.127930 312.318390,252.722580 318.951813,252.360443 
	C318.364655,250.601700 318.053680,248.684692 317.149750,247.107498 
	C297.665405,213.109573 278.130066,179.140839 258.557312,145.193710 
	C256.175568,141.062775 253.523865,137.087494 250.309021,133.108948 
M229.242874,293.362335 
	C228.919922,295.092834 228.596954,296.823364 228.277527,298.535004 
	C230.782852,298.961548 232.354843,299.229187 233.846283,299.483093 
	C234.100464,305.010895 232.640366,306.607391 227.833084,306.451538 
	C222.796051,306.288239 219.528809,302.732910 219.372101,297.244537 
	C219.196411,291.090271 222.790298,286.318176 228.366409,286.122345 
	C231.520187,286.011536 234.711441,286.967926 237.886322,287.439026 
	C238.718414,282.029938 238.572784,281.306549 234.947845,280.514191 
	C228.504715,279.105774 222.239212,279.510956 217.317413,284.568604 
	C212.342575,289.680725 211.276276,295.938873 213.321548,302.614380 
	C215.448380,309.556122 222.811340,313.679718 230.367508,312.499786 
	C238.095169,311.293091 240.463470,308.098267 240.491394,298.836670 
	C240.496765,297.053467 240.492157,295.270294 240.492157,293.176453 
	C236.682480,293.176453 233.385178,293.176453 229.242874,293.362335 
M295.953583,284.830231 
	C295.953583,293.756073 295.953583,302.681915 295.953583,311.990387 
	C298.346130,311.881500 300.045654,311.804138 302.187744,311.706635 
	C302.187744,305.778168 302.187744,300.408203 302.187744,293.521606 
	C306.104492,299.486115 309.291046,304.085541 312.195251,308.856903 
	C313.916412,311.684662 315.852051,312.953918 318.915100,311.440369 
	C318.915100,301.065399 318.915100,290.865051 318.915100,280.276855 
	C316.741821,280.443359 315.039276,280.573822 312.899292,280.737793 
	C312.899292,286.854218 312.899292,292.382812 312.899292,297.911407 
	C308.663177,292.868073 305.404144,287.518585 301.821594,282.395264 
	C301.062500,281.309692 299.141083,280.677612 297.715607,280.604095 
	C297.187714,280.576843 296.545990,282.755920 295.953583,284.830231 
M109.461502,287.639160 
	C109.461502,295.603363 109.461502,303.567596 109.461502,311.748291 
	C111.817818,311.748291 113.575119,311.748291 115.941795,311.748291 
	C115.941795,307.766541 115.941795,304.025208 115.941795,300.199524 
	C121.839035,299.405884 121.646263,304.190796 122.713234,306.899872 
	C124.486847,311.403168 126.834473,313.355804 131.819839,311.348450 
	C129.835556,306.983765 127.869331,302.658813 125.996185,298.538605 
	C130.909546,293.181244 131.934052,289.936615 130.045364,285.707794 
	C127.752861,280.574860 123.094093,280.059204 118.292397,279.929718 
	C117.626564,279.911743 116.959915,279.918945 116.293671,279.921753 
	C109.504189,279.950531 109.504189,279.950958 109.461502,287.639160 
M368.933533,280.561676 
	C368.912354,288.750488 368.285461,296.999969 369.097412,305.105316 
	C369.583405,309.956421 375.016998,312.696991 380.650574,312.700043 
	C385.997559,312.702942 391.172729,309.737457 391.882721,304.615662 
	C392.980072,296.699585 392.837524,288.611633 393.199921,281.033173 
	C387.227295,279.137848 385.746155,281.131287 386.079193,285.817474 
	C386.396820,290.286835 386.142700,294.797150 386.131592,299.289459 
	C386.122162,303.112000 385.258514,306.431152 380.633911,306.695068 
	C376.874481,306.909576 374.925812,304.242828 374.879700,299.061523 
	C374.825470,292.966217 374.867004,286.870056 374.867004,280.331909 
	C372.678558,280.331909 371.220795,280.331909 368.933533,280.561676 
M411.927917,288.666687 
	C411.573364,293.481995 413.700195,296.700562 418.285248,298.122223 
	C420.172729,298.707458 422.342224,298.537811 424.102295,299.333466 
	C425.690369,300.051361 426.894775,301.617950 428.268372,302.810272 
	C426.936798,304.062683 425.550537,306.425262 424.283722,306.362854 
	C420.213531,306.162292 416.187469,305.066040 411.502197,304.196045 
	C412.081696,305.956390 412.178284,309.733765 413.828583,310.620911 
	C419.142242,313.477417 425.381592,314.189819 430.304291,310.141418 
	C432.702637,308.169006 434.521210,303.896515 434.297272,300.833710 
	C434.117035,298.368744 430.740601,295.792969 428.266510,293.964111 
	C426.677979,292.789856 423.995300,293.211823 422.098938,292.301788 
	C420.539154,291.553253 419.414948,289.897064 418.097717,288.643158 
	C419.782288,287.687683 421.469727,285.949890 423.150818,285.956024 
	C425.820190,285.965729 428.485291,287.140076 432.350433,288.128021 
	C431.557129,285.565430 431.567047,282.589020 430.148315,281.534149 
	C423.934662,276.914124 414.346924,280.457153 411.927917,288.666687 
M87.170540,311.795502 
	C89.066643,311.795502 90.962746,311.795502 93.558502,311.795502 
	C89.810036,301.406433 86.426285,291.699615 82.766960,282.097809 
	C81.745064,279.416443 76.473488,279.342682 75.463120,282.014099 
	C71.785484,291.737793 68.422943,301.580658 64.912643,311.460175 
	C69.096840,312.613770 71.950920,312.526123 72.983299,307.910858 
	C73.232910,306.794952 75.067497,305.480316 76.352867,305.247101 
	C81.354286,304.339691 85.617889,305.156982 87.170540,311.795502 
M259.028687,309.210938 
	C259.873047,310.138092 260.677307,311.819824 261.568390,311.867157 
	C266.497223,312.128876 271.447144,311.992432 276.682373,311.992432 
	C276.682373,309.893372 276.682373,308.324249 276.682373,306.151550 
	C274.109436,306.151550 271.655060,306.026978 269.218597,306.182587 
	C266.066010,306.383942 265.286346,304.839203 265.269440,301.976868 
	C265.251984,299.027618 266.224823,297.647858 269.294922,297.867645 
	C270.727844,297.970245 272.187836,297.694733 274.003204,297.564178 
	C273.912842,295.643677 273.839172,294.077942 273.755798,292.306702 
	C271.904388,292.207520 270.304108,292.469818 269.011230,291.957031 
	C267.651367,291.417664 266.585571,290.136841 265.391296,289.179993 
	C266.531281,288.156586 267.537567,286.535370 268.841248,286.243805 
	C271.031738,285.753967 273.411346,286.109711 276.008789,286.109711 
	C276.008789,283.997864 276.008789,282.276001 276.008789,280.570801 
	C270.272797,280.570801 264.879578,280.570801 259.016846,280.570801 
	C259.016846,290.054199 259.016846,299.156708 259.028687,309.210938 
M154.944305,310.124573 
	C156.846863,310.927551 158.749420,311.730560 161.611557,312.938568 
	C161.611557,305.554901 161.610916,299.776611 161.611710,293.998352 
	C161.612732,286.534088 161.613235,286.534088 169.056732,285.380920 
	C169.056732,283.844452 169.056732,282.270660 169.056732,280.522522 
	C161.708298,280.522522 154.652328,280.522522 147.452454,280.522522 
	C147.452454,282.424561 147.452454,284.084167 147.452454,285.711456 
	C150.014221,285.877563 152.130936,286.014801 154.895050,286.194000 
	C154.895050,294.025604 154.895050,301.609283 154.944305,310.124573 
M193.817245,296.497925 
	C193.818817,292.855560 193.834869,289.213165 193.818649,285.570862 
	C193.793121,279.842407 193.344635,279.530396 187.325592,281.073456 
	C187.325592,291.221344 187.325592,301.397675 187.325592,311.656433 
	C189.546860,311.656433 191.422821,311.656433 193.817032,311.656433 
	C193.817032,306.701508 193.817032,302.098022 193.817245,296.497925 
M347.089294,294.505310 
	C347.089294,289.933411 347.089294,285.361511 347.089294,280.609253 
	C344.622192,280.609253 342.883789,280.609253 340.807251,280.609253 
	C340.807251,291.072205 340.807251,301.254669 340.807251,311.646942 
	C342.903839,311.646942 344.768158,311.646942 347.089355,311.646942 
	C347.089355,306.040710 347.089355,300.771667 347.089294,294.505310 
z"/>
<path fill="#37B3FC" opacity="1.000000" stroke="none" 
	d="
M251.855164,212.062103 
	C255.179871,217.772415 260.893494,223.382996 261.137268,229.221924 
	C261.367249,234.731079 255.858292,240.489594 252.838013,246.119202 
	C251.823013,248.011093 250.698044,249.843948 249.024155,251.691956 
	C247.747177,250.966965 246.722580,250.366379 246.448486,249.522141 
	C244.797791,244.437714 241.106689,243.771561 236.350998,243.891708 
	C225.093658,244.176086 213.821777,244.126282 202.560562,243.933319 
	C194.819458,243.800720 189.234665,247.816177 183.932327,252.654617 
	C183.674942,252.680145 183.417557,252.705688 182.928314,252.201233 
	C182.745590,251.368225 182.794724,251.065186 182.843857,250.762146 
	C195.755844,228.140823 209.229095,205.813507 221.307495,182.755524 
	C226.236206,173.346466 231.859222,168.926559 242.304413,170.931152 
	C244.550507,171.362198 246.948822,170.999969 249.838379,171.156326 
	C250.545578,171.513367 250.727676,171.676880 250.946030,171.800034 
	C250.946030,171.800034 250.529388,171.925049 249.961182,172.037598 
	C246.596848,173.582886 243.900009,175.274750 240.983124,176.392273 
	C235.573639,178.464798 232.092865,182.179794 229.379776,187.257080 
	C224.301163,196.761246 218.617691,205.939911 213.367706,215.355408 
	C208.454254,224.167374 203.776321,233.110657 198.914307,242.028320 
	C198.833878,242.060501 198.821365,242.271713 198.821365,242.271713 
	C198.821365,242.271713 199.003296,242.004517 199.347931,241.934906 
	C205.124588,238.919479 210.556625,235.973633 215.988647,233.027786 
	C223.012741,233.056671 230.036819,233.085556 237.651794,233.374268 
	C239.797592,236.610535 241.352493,239.586945 243.281296,243.279114 
	C247.895569,235.989899 252.232956,230.020157 251.147690,221.813004 
	C250.729324,218.649216 251.581741,215.317368 251.855164,212.062103 
z"/>
<path fill="#67686D" opacity="1.000000" stroke="none" 
	d="
M251.167969,172.076279 
	C250.727676,171.676880 250.545578,171.513367 250.322128,171.143250 
	C246.894760,164.869156 243.544968,158.761322 240.549454,152.220337 
	C244.251389,151.436813 247.599045,151.086456 251.184113,150.998764 
	C265.806305,176.204102 280.199615,201.141861 294.571442,226.091965 
	C300.097107,235.684677 304.448883,246.282867 316.101624,250.503235 
	C316.922882,250.800674 317.455353,251.895355 318.122101,252.619324 
	C312.318390,252.722580 306.494873,253.127930 300.722839,252.748703 
	C298.944427,252.631866 296.685699,250.735855 295.697693,249.041656 
	C280.825104,223.538879 266.128143,197.933670 251.167969,172.076279 
z"/>
<path fill="#81838A" opacity="1.000000" stroke="none" 
	d="
M318.536957,252.489883 
	C317.455353,251.895355 316.922882,250.800674 316.101624,250.503235 
	C304.448883,246.282867 300.097107,235.684677 294.571442,226.091965 
	C280.199615,201.141861 265.806305,176.204102 251.199661,150.560745 
	C250.984283,144.253403 250.990784,138.646744 250.997269,133.040085 
	C253.523865,137.087494 256.175568,141.062775 258.557312,145.193710 
	C278.130066,179.140839 297.665405,213.109573 317.149750,247.107498 
	C318.053680,248.684692 318.364655,250.601700 318.536957,252.489883 
z"/>
<path fill="#2492D3" opacity="1.000000" stroke="none" 
	d="
M216.026398,232.675385 
	C210.556625,235.973633 205.124588,238.919479 199.346283,241.932648 
	C199.000000,242.000000 198.994720,241.996155 198.994720,241.996155 
	C203.776321,233.110657 208.454254,224.167374 213.367706,215.355408 
	C218.617691,205.939911 224.301163,196.761246 229.379776,187.257080 
	C232.092865,182.179794 235.573639,178.464798 240.983124,176.392273 
	C243.900009,175.274750 246.596848,173.582886 249.753967,172.103699 
	C242.277054,185.982513 234.448944,199.913315 226.596756,213.830536 
	C223.110931,220.008804 219.576523,226.159683 216.026398,232.675385 
z"/>
<path fill="#636469" opacity="1.000000" stroke="none" 
	d="
M229.665375,293.269409 
	C233.385178,293.176453 236.682480,293.176453 240.492157,293.176453 
	C240.492157,295.270294 240.496765,297.053467 240.491394,298.836670 
	C240.463470,308.098267 238.095169,311.293091 230.367508,312.499786 
	C222.811340,313.679718 215.448380,309.556122 213.321548,302.614380 
	C211.276276,295.938873 212.342575,289.680725 217.317413,284.568604 
	C222.239212,279.510956 228.504715,279.105774 234.947845,280.514191 
	C238.572784,281.306549 238.718414,282.029938 237.886078,287.441345 
	C234.711441,286.967926 231.520187,286.011536 228.366409,286.122345 
	C222.790298,286.318176 219.196411,291.090271 219.372101,297.244537 
	C219.528809,302.732910 222.796051,306.288239 227.833084,306.451538 
	C232.640366,306.607391 234.100464,305.010895 233.846283,299.483093 
	C232.354843,299.229187 230.782852,298.961548 228.277527,298.535004 
	C228.596954,296.823364 228.919922,295.092834 229.665375,293.269409 
z"/>
<path fill="#65666B" opacity="1.000000" stroke="none" 
	d="
M295.954895,284.379517 
	C296.545990,282.755920 297.187714,280.576843 297.715607,280.604095 
	C299.141083,280.677612 301.062500,281.309692 301.821594,282.395264 
	C305.404144,287.518585 308.663177,292.868073 312.899292,297.911407 
	C312.899292,292.382812 312.899292,286.854218 312.899292,280.737793 
	C315.039276,280.573822 316.741821,280.443359 318.915100,280.276855 
	C318.915100,290.865051 318.915100,301.065399 318.915100,311.440369 
	C315.852051,312.953918 313.916412,311.684662 312.195251,308.856903 
	C309.291046,304.085541 306.104492,299.486115 302.187744,293.521606 
	C302.187744,300.408203 302.187744,305.778168 302.187744,311.706635 
	C300.045654,311.804138 298.346130,311.881500 295.953583,311.990387 
	C295.953583,302.681915 295.953583,293.756073 295.954895,284.379517 
z"/>
<path fill="#2491D0" opacity="1.000000" stroke="none" 
	d="
M184.328186,252.767654 
	C189.234665,247.816177 194.819458,243.800720 202.560562,243.933319 
	C213.821777,244.126282 225.093658,244.176086 236.350998,243.891708 
	C241.106689,243.771561 244.797791,244.437714 246.448486,249.522141 
	C246.722580,250.366379 247.747177,250.966965 248.723480,251.852478 
	C247.634781,252.326782 246.248047,252.888840 244.860214,252.891632 
	C224.814911,252.932068 204.769470,252.897385 184.328186,252.767654 
z"/>
<path fill="#65666B" opacity="1.000000" stroke="none" 
	d="
M109.462021,287.162476 
	C109.504189,279.950958 109.504189,279.950531 116.293671,279.921753 
	C116.959915,279.918945 117.626564,279.911743 118.292397,279.929718 
	C123.094093,280.059204 127.752861,280.574860 130.045364,285.707794 
	C131.934052,289.936615 130.909546,293.181244 125.996185,298.538605 
	C127.869331,302.658813 129.835556,306.983765 131.819839,311.348450 
	C126.834473,313.355804 124.486847,311.403168 122.713234,306.899872 
	C121.646263,304.190796 121.839035,299.405884 115.941795,300.199524 
	C115.941795,304.025208 115.941795,307.766541 115.941795,311.748291 
	C113.575119,311.748291 111.817818,311.748291 109.461502,311.748291 
	C109.461502,303.567596 109.461502,295.603363 109.462021,287.162476 
M120.792061,294.602631 
	C123.932213,293.584045 125.775703,291.468384 124.271477,288.300171 
	C122.633720,284.850708 119.413925,285.160919 115.656082,286.202454 
	C117.573433,289.079041 112.353210,294.734802 120.792061,294.602631 
z"/>
<path fill="#616267" opacity="1.000000" stroke="none" 
	d="
M369.348267,280.446777 
	C371.220795,280.331909 372.678558,280.331909 374.867004,280.331909 
	C374.867004,286.870056 374.825470,292.966217 374.879700,299.061523 
	C374.925812,304.242828 376.874481,306.909576 380.633911,306.695068 
	C385.258514,306.431152 386.122162,303.112000 386.131592,299.289459 
	C386.142700,294.797150 386.396820,290.286835 386.079193,285.817474 
	C385.746155,281.131287 387.227295,279.137848 393.199921,281.033173 
	C392.837524,288.611633 392.980072,296.699585 391.882721,304.615662 
	C391.172729,309.737457 385.997559,312.702942 380.650574,312.700043 
	C375.016998,312.696991 369.583405,309.956421 369.097412,305.105316 
	C368.285461,296.999969 368.912354,288.750488 369.348267,280.446777 
z"/>
<path fill="#636469" opacity="1.000000" stroke="none" 
	d="
M411.954163,288.260071 
	C414.346924,280.457153 423.934662,276.914124 430.148315,281.534149 
	C431.567047,282.589020 431.557129,285.565430 432.350433,288.128021 
	C428.485291,287.140076 425.820190,285.965729 423.150818,285.956024 
	C421.469727,285.949890 419.782288,287.687683 418.097717,288.643158 
	C419.414948,289.897064 420.539154,291.553253 422.098938,292.301788 
	C423.995300,293.211823 426.677979,292.789856 428.266510,293.964111 
	C430.740601,295.792969 434.117035,298.368744 434.297272,300.833710 
	C434.521210,303.896515 432.702637,308.169006 430.304291,310.141418 
	C425.381592,314.189819 419.142242,313.477417 413.828583,310.620911 
	C412.178284,309.733765 412.081696,305.956390 411.502197,304.196045 
	C416.187469,305.066040 420.213531,306.162292 424.283722,306.362854 
	C425.550537,306.425262 426.936798,304.062683 428.268372,302.810272 
	C426.894775,301.617950 425.690369,300.051361 424.102295,299.333466 
	C422.342224,298.537811 420.172729,298.707458 418.285248,298.122223 
	C413.700195,296.700562 411.573364,293.481995 411.954163,288.260071 
z"/>
<path fill="#646569" opacity="1.000000" stroke="none" 
	d="
M86.827286,311.569977 
	C85.617889,305.156982 81.354286,304.339691 76.352867,305.247101 
	C75.067497,305.480316 73.232910,306.794952 72.983299,307.910858 
	C71.950920,312.526123 69.096840,312.613770 64.912643,311.460175 
	C68.422943,301.580658 71.785484,291.737793 75.463120,282.014099 
	C76.473488,279.342682 81.745064,279.416443 82.766960,282.097809 
	C86.426285,291.699615 89.810036,301.406433 93.558502,311.795502 
	C90.962746,311.795502 89.066643,311.795502 86.827286,311.569977 
M79.292152,290.705109 
	C78.016106,293.251373 76.740051,295.797638 75.077972,299.114197 
	C78.084816,299.114197 79.878235,299.114197 82.336067,299.114197 
	C81.356781,296.117981 80.556282,293.668762 79.292152,290.705109 
z"/>
<path fill="#646569" opacity="1.000000" stroke="none" 
	d="
M259.022766,308.735107 
	C259.016846,299.156708 259.016846,290.054199 259.016846,280.570801 
	C264.879578,280.570801 270.272797,280.570801 276.008789,280.570801 
	C276.008789,282.276001 276.008789,283.997864 276.008789,286.109711 
	C273.411346,286.109711 271.031738,285.753967 268.841248,286.243805 
	C267.537567,286.535370 266.531281,288.156586 265.391296,289.179993 
	C266.585571,290.136841 267.651367,291.417664 269.011230,291.957031 
	C270.304108,292.469818 271.904388,292.207520 273.755798,292.306702 
	C273.839172,294.077942 273.912842,295.643677 274.003204,297.564178 
	C272.187836,297.694733 270.727844,297.970245 269.294922,297.867645 
	C266.224823,297.647858 265.251984,299.027618 265.269440,301.976868 
	C265.286346,304.839203 266.066010,306.383942 269.218597,306.182587 
	C271.655060,306.026978 274.109436,306.151550 276.682373,306.151550 
	C276.682373,308.324249 276.682373,309.893372 276.682373,311.992432 
	C271.447144,311.992432 266.497223,312.128876 261.568390,311.867157 
	C260.677307,311.819824 259.873047,310.138092 259.022766,308.735107 
z"/>
<path fill="#646569" opacity="1.000000" stroke="none" 
	d="
M154.919678,309.658752 
	C154.895050,301.609283 154.895050,294.025604 154.895050,286.194000 
	C152.130936,286.014801 150.014221,285.877563 147.452454,285.711456 
	C147.452454,284.084167 147.452454,282.424561 147.452454,280.522522 
	C154.652328,280.522522 161.708298,280.522522 169.056732,280.522522 
	C169.056732,282.270660 169.056732,283.844452 169.056732,285.380920 
	C161.613235,286.534088 161.612732,286.534088 161.611710,293.998352 
	C161.610916,299.776611 161.611557,305.554901 161.611557,312.938568 
	C158.749420,311.730560 156.846863,310.927551 154.919678,309.658752 
z"/>
<path fill="#616267" opacity="1.000000" stroke="none" 
	d="
M193.817139,296.996216 
	C193.817032,302.098022 193.817032,306.701508 193.817032,311.656433 
	C191.422821,311.656433 189.546860,311.656433 187.325592,311.656433 
	C187.325592,301.397675 187.325592,291.221344 187.325592,281.073456 
	C193.344635,279.530396 193.793121,279.842407 193.818649,285.570862 
	C193.834869,289.213165 193.818817,292.855560 193.817139,296.996216 
z"/>
<path fill="#67686D" opacity="1.000000" stroke="none" 
	d="
M347.089325,295.003967 
	C347.089355,300.771667 347.089355,306.040710 347.089355,311.646942 
	C344.768158,311.646942 342.903839,311.646942 340.807251,311.646942 
	C340.807251,301.254669 340.807251,291.072205 340.807251,280.609253 
	C342.883789,280.609253 344.622192,280.609253 347.089294,280.609253 
	C347.089294,285.361511 347.089294,289.933411 347.089325,295.003967 
z"/>
<path fill="#2491D0" opacity="1.000000" stroke="none" 
	d="
M251.765381,211.725342 
	C251.581741,215.317368 250.729324,218.649216 251.147690,221.813004 
	C252.232956,230.020157 247.895569,235.989899 243.281296,243.279114 
	C241.352493,239.586945 239.797592,236.610535 238.115723,233.308868 
	C241.820984,226.101883 245.624161,219.203491 249.539917,212.369598 
	C249.856934,211.816330 250.945541,211.705170 251.765381,211.725342 
z"/>
<path fill="#888A8F" opacity="1.000000" stroke="none" 
	d="
M250.653137,133.074524 
	C250.990784,138.646744 250.984283,144.253403 250.962250,150.298080 
	C247.599045,151.086456 244.251389,151.436813 240.511871,151.872284 
	C243.516357,145.674576 246.912689,139.391754 250.653137,133.074524 
z"/>
<path fill="#2491D0" opacity="1.000000" stroke="none" 
	d="
M182.593048,250.893066 
	C182.794724,251.065186 182.745590,251.368225 182.551544,252.108704 
	C182.385178,252.038757 182.363708,251.531372 182.593048,250.893066 
z"/>
<path fill="#2492D3" opacity="1.000000" stroke="none" 
	d="
M199.001648,242.002258 
	C199.003296,242.004517 198.821365,242.271713 198.821365,242.271713 
	C198.821365,242.271713 198.833878,242.060501 198.914307,242.028320 
	C198.994720,241.996155 199.000000,242.000000 199.001648,242.002258 
z"/>
<path fill="#060606" opacity="1.000000" stroke="none" 
	d="
M120.395844,294.684753 
	C112.353210,294.734802 117.573433,289.079041 115.656082,286.202454 
	C119.413925,285.160919 122.633720,284.850708 124.271477,288.300171 
	C125.775703,291.468384 123.932213,293.584045 120.395844,294.684753 
z"/>
<path fill="#060606" opacity="1.000000" stroke="none" 
	d="
M79.523964,290.962341 
	C80.556282,293.668762 81.356781,296.117981 82.336067,299.114197 
	C79.878235,299.114197 78.084816,299.114197 75.077972,299.114197 
	C76.740051,295.797638 78.016106,293.251373 79.523964,290.962341 
z"/>
</svg>